<?xml version="1.0" encoding="utf-8" standalone="no"?>
<!DOCTYPE svg PUBLIC "-//W3C//DTD SVG 1.1//EN"
  "http://www.w3.org/Graphics/SVG/1.1/DTD/svg11.dtd">
<svg xmlns:xlink="http://www.w3.org/1999/xlink" width="280.025pt" height="130.44775pt" viewBox="0 0 280.025 130.44775" xmlns="http://www.w3.org/2000/svg" version="1.1">
 <metadata>
  <rdf:RDF xmlns:dc="http://purl.org/dc/elements/1.1/" xmlns:cc="http://creativecommons.org/ns#" xmlns:rdf="http://www.w3.org/1999/02/22-rdf-syntax-ns#">
   <cc:Work>
    <dc:type rdf:resource="http://purl.org/dc/dcmitype/StillImage"/>
    <dc:date>2023-11-20T09:52:38.295777</dc:date>
    <dc:format>image/svg+xml</dc:format>
    <dc:creator>
     <cc:Agent>
      <dc:title>Matplotlib v3.7.1, https://matplotlib.org/</dc:title>
     </cc:Agent>
    </dc:creator>
   </cc:Work>
  </rdf:RDF>
 </metadata>
 <defs>
  <style type="text/css">*{stroke-linejoin: round; stroke-linecap: butt}</style>
 </defs>
 <g id="figure_1">
  <g id="patch_1">
   <path d="M 0 130.44775
L 280.025 130.44775
L 280.025 0
L 0 0
L 0 130.44775
z
" style="fill: none"/>
  </g>
  <g id="axes_1">
   <g id="text_1">
    <!-- Angst -->
    <g style="opacity: 0.8" transform="translate(7.2 95.904) scale(1 -1)">
     <defs>
      <path id="HersheySans-Black-41" d="M 2356 1750
L 1800 3219
L 1244 1750
L 2356 1750
z
M 200 -350
Q 56 -350 -47 -247
Q -150 -144 -150 0
Q -150 63 -125 125
L 1475 4325
Q 1513 4425 1600 4487
Q 1688 4550 1800 4550
Q 1913 4550 2000 4487
Q 2088 4425 2125 4325
L 3725 125
Q 3750 63 3750 0
Q 3750 -144 3647 -247
Q 3544 -350 3400 -350
Q 3288 -350 3200 -287
Q 3113 -225 3075 -125
L 2625 1050
L 975 1050
L 525 -125
Q 488 -225 400 -287
Q 313 -350 200 -350
z
" transform="scale(0.015625)"/>
      <path id="HersheySans-Black-6e" d="M 1150 0
Q 1150 -144 1047 -247
Q 944 -350 800 -350
Q 656 -350 553 -247
Q 450 -144 450 0
L 450 2800
Q 450 2944 553 3047
Q 656 3150 800 3150
Q 931 3150 1031 3062
Q 1131 2975 1150 2844
L 1150 2850
Q 1194 2888 1244 2913
L 1644 3113
Q 1719 3150 1800 3150
L 2400 3150
Q 2481 3150 2556 3113
L 2956 2913
Q 3088 2850 3131 2713
L 3331 2113
Q 3350 2056 3350 2000
L 3350 0
Q 3350 -144 3247 -247
Q 3144 -350 3000 -350
Q 2856 -350 2753 -247
Q 2650 -144 2650 0
L 2650 1944
L 2513 2350
L 2319 2450
L 1881 2450
L 1606 2313
L 1150 1856
L 1150 0
z
" transform="scale(0.015625)"/>
      <path id="HersheySans-Black-67" d="M 2200 -350
L 1600 -350
Q 1519 -350 1444 -313
L 1044 -113
Q 994 -88 950 -50
L 550 350
Q 494 413 469 488
L 269 1088
Q 250 1144 250 1200
L 250 1600
Q 250 1656 269 1713
L 469 2313
Q 494 2388 550 2450
L 950 2850
Q 994 2888 1044 2913
L 1444 3113
Q 1519 3150 1600 3150
L 2200 3150
Q 2281 3150 2356 3113
L 2681 2950
Q 2781 3150 3000 3150
Q 3144 3150 3247 3047
Q 3350 2944 3350 2800
L 3350 -400
Q 3350 -456 3331 -513
L 3131 -1113
Q 3106 -1188 3050 -1250
L 2850 -1450
Q 2806 -1488 2756 -1513
L 2356 -1713
Q 2281 -1750 2200 -1750
L 1600 -1750
Q 1519 -1750 1444 -1713
L 1044 -1513
Q 850 -1419 850 -1200
Q 850 -1056 953 -953
Q 1056 -850 1200 -850
Q 1281 -850 1356 -888
L 1681 -1050
L 2119 -1050
L 2394 -913
L 2494 -813
L 2650 -344
L 2650 -169
L 2356 -313
Q 2281 -350 2200 -350
z
M 2650 2056
L 2394 2313
L 2119 2450
L 1681 2450
L 1406 2313
L 1106 2013
L 950 1544
L 950 1256
L 1106 788
L 1406 488
L 1681 350
L 2119 350
L 2394 488
L 2650 744
L 2650 2056
z
" transform="scale(0.015625)"/>
      <path id="HersheySans-Black-73" d="M 3150 2200
Q 3150 2056 3047 1953
Q 2944 1850 2800 1850
Q 2581 1850 2488 2044
L 2350 2313
L 1944 2450
L 1456 2450
L 1050 2313
L 994 2200
L 1063 2063
L 1313 1931
L 2269 1744
Q 2313 1731 2356 1713
L 2756 1513
Q 2863 1463 2913 1356
L 3113 956
Q 3150 881 3150 800
L 3150 600
Q 3150 519 3113 444
L 2913 44
Q 2850 -88 2713 -131
L 2113 -331
Q 2056 -350 2000 -350
L 1400 -350
Q 1344 -350 1288 -331
L 688 -131
Q 550 -88 488 44
L 288 444
Q 250 519 250 600
Q 250 744 353 847
Q 456 950 600 950
Q 819 950 913 756
L 1050 488
L 1456 350
L 1944 350
L 2350 488
L 2450 681
L 2450 719
L 2338 938
L 2088 1069
L 1131 1256
Q 1088 1269 1044 1288
L 644 1488
Q 538 1538 488 1644
L 288 2044
Q 250 2119 250 2200
Q 250 2281 288 2356
L 488 2756
Q 550 2888 688 2931
L 1288 3131
Q 1344 3150 1400 3150
L 2000 3150
Q 2056 3150 2113 3131
L 2713 2931
Q 2850 2888 2913 2756
L 3113 2356
Q 3150 2281 3150 2200
z
" transform="scale(0.015625)"/>
      <path id="HersheySans-Black-74" d="M 400 2450
Q 256 2450 153 2553
Q 50 2656 50 2800
Q 50 2944 153 3047
Q 256 3150 400 3150
L 650 3150
L 650 4200
Q 650 4344 753 4447
Q 856 4550 1000 4550
Q 1144 4550 1247 4447
Q 1350 4344 1350 4200
L 1350 3150
L 1800 3150
Q 1944 3150 2047 3047
Q 2150 2944 2150 2800
Q 2150 2656 2047 2553
Q 1944 2450 1800 2450
L 1350 2450
L 1350 856
L 1488 450
L 1681 350
L 2000 350
Q 2144 350 2247 247
Q 2350 144 2350 0
Q 2350 -144 2247 -247
Q 2144 -350 2000 -350
L 1600 -350
Q 1519 -350 1444 -313
L 1044 -113
Q 913 -50 869 88
L 669 688
Q 650 744 650 800
L 650 2450
L 400 2450
z
" transform="scale(0.015625)"/>
     </defs>
     <use xlink:href="#HersheySans-Black-41"/>
     <use xlink:href="#HersheySans-Black-6e" x="56.25"/>
     <use xlink:href="#HersheySans-Black-67" x="115.625"/>
     <use xlink:href="#HersheySans-Black-73" x="175"/>
     <use xlink:href="#HersheySans-Black-74" x="228.125"/>
    </g>
   </g>
  </g>
 </g>
</svg>
